<?xml version="1.0" encoding="UTF-8" standalone="no"?>
<svg
   viewBox="0 0 105.5 19.88"
   version="1.1"
   id="svg20"
   sodipodi:docname="MAAL_logo_Dark_1.svg"
   inkscape:version="1.4 (86a8ad7, 2024-10-11)"
   xmlns:inkscape="http://www.inkscape.org/namespaces/inkscape"
   xmlns:sodipodi="http://sodipodi.sourceforge.net/DTD/sodipodi-0.dtd"
   xmlns="http://www.w3.org/2000/svg"
   xmlns:svg="http://www.w3.org/2000/svg"
   xmlns:rdf="http://www.w3.org/1999/02/22-rdf-syntax-ns#"
   xmlns:cc="http://creativecommons.org/ns#"
   xmlns:dc="http://purl.org/dc/elements/1.1/">
  <sodipodi:namedview
     id="namedview20"
     pagecolor="#505050"
     bordercolor="#ffffff"
     borderopacity="1"
     inkscape:showpageshadow="0"
     inkscape:pageopacity="0"
     inkscape:pagecheckerboard="1"
     inkscape:deskcolor="#505050"
     inkscape:zoom="8.1501594"
     inkscape:cx="56.440614"
     inkscape:cy="7.8526071"
     inkscape:current-layer="Layer_2" />
  <defs
     id="defs1">
    <style
       id="style1">.cls-1{fill:#ce0e2d;}</style>
  </defs>
  <title
     id="title1">EMAlogo</title>
  <g
     id="Layer_2"
     data-name="Layer 2">
    <g
       id="Layer_1-2"
       data-name="Layer 1">
      <path
         class="cls-1"
         d="m 10.266349,6.0999995 v 0 L 8.811355,17.65 H 5.1026997 L 3.6556129,6.0999995 v 0 V 17.65 H 0.2 V 1.49 h 5.6222893 l 1.1149688,9.620004 v 0 L 8.0522269,1.49 h 5.6222911 v 16.16 h -3.408169 z"
         id="path2"
         style="stroke-width:0.889246;fill:#e7352c;fill-opacity:1" />
      <path
         class="cls-1"
         d="m 16.470065,1.49 h 5.250634 l 3.289554,16.16 H 20.819232 L 20.423856,15.050002 H 17.521777 L 17.11058,17.65 H 13.235866 Z M 19.830792,11.110004 19.055847,5 v 0 l -0.925184,6.110004 z"
         id="path3"
         style="stroke-width:0.889246;fill:#e7352c;fill-opacity:1" />
      <path
         class="cls-1"
         d="m 27.135782,1.49 h 5.25063 l 3.289554,16.16 H 31.48495 L 31.089568,15.050002 H 28.187487 L 27.776295,17.65 H 23.901581 Z M 30.496504,11.110004 29.721559,5 v 0 l -0.925186,6.110004 z"
         id="path21"
         style="stroke-width:0.889246;fill:#e7352c;fill-opacity:1" />
      <path
         class="cls-1"
         d="m 35.192421,1.49 h 3.874358 L 39.067136,14 H 43.1 v 3.65 h -7.907579 z"
         id="path1"
         style="stroke-width:0.889246;fill:#e7352c;fill-opacity:1"
         sodipodi:nodetypes="ccccccc" />
      <polygon
         points="45.46 19.88 45.1 19.88 45.1 0 45.46 0 45.46 19.88 45.46 19.88"
         id="polygon3"
         style="fill:#ffc22d;fill-opacity:1" />
      <path
         d="M47.73,1.44h2.91c2.92,0,3.15.54,3.15,2.65V6.24c0,1.86-.59,2.44-3.44,2.44H47.73Zm1.81,6.4h.86C51.74,7.84,52,7.45,52,6.2V3.72c0-1.07-.2-1.43-1.73-1.43h-.72Z"
         id="path4"
         style="fill:#ffc22d;fill-opacity:1" />
      <path
         d="M54.53,4.94c0-.85.89-1.35,2.46-1.35,1.35,0,2.47.32,2.47,1.25V6.46H56.23V7.54c0,.47.29.6.83.6s.81-.25.81-.65V7h1.59v.71c0,.51-.65,1-2.53,1-1.28,0-2.4-.32-2.4-1.25Zm1.7.86h1.64v-1c0-.45-.23-.63-.81-.63s-.83.19-.83.55Z"
         id="path5"
         style="fill:#ffc22d;fill-opacity:1" />
      <path
         d="M62.87,5.27V4.79c0-.39-.15-.54-.6-.54s-.58.11-.58.46c0,.51.08.54,1.21,1.09,1.32.64,1.57.86,1.57,1.59,0,1-.61,1.35-2.41,1.35-1.3,0-2-.3-2-1V7h1.59v.69c0,.31.24.39.63.39.56,0,.64-.16.64-.56s-.06-.62-1-1.09l-.38-.18c-1.36-.64-1.37-.72-1.37-1.41,0-.95.83-1.25,2.34-1.25,1.26,0,1.93.31,1.93.91v.77Z"
         id="path6"
         style="fill:#ffc22d;fill-opacity:1" />
      <path
         d="m 65.18,3.65 h 1.69 v 5 h -1.69 z"
         id="path7"
         style="fill:#ffc22d;fill-opacity:1"
         sodipodi:nodetypes="ccccc" />
      <path
         d="M67.88,9.14h1.7v.39c0,.29.16.43.63.43s.63-.15.63-.57V8.14h0a2.17,2.17,0,0,1-1.49.42c-1,0-1.59-.42-1.59-1.16V4.75c0-.74.59-1.16,1.59-1.16a2.19,2.19,0,0,1,1.6.51h0V3.65h1.59V9.17c0,.89-.8,1.39-2.44,1.39-1.23,0-2.22-.26-2.22-1Zm1.54-2c0,.58.28.72.73.72s.69-.16.69-.53V4.78c0-.35-.27-.53-.76-.53s-.66.1-.66.52Z"
         id="path8"
         style="fill:#ffc22d;fill-opacity:1" />
      <path
         d="M73.33,3.65h1.59v.42h0a1.68,1.68,0,0,1,.65-.35,2.92,2.92,0,0,1,.92-.13c.85,0,1.59.25,1.59,1v4.1h-1.7V4.76c0-.26-.12-.45-.64-.45s-.74.14-.74.53V8.68h-1.7Z"
         id="path9"
         style="fill:#ffc22d;fill-opacity:1" />
      <path
         d="M50.13,10.3h2.09l2.66,7.24H53.07l-.59-1.85H49.66l-.59,1.85H47.26Zm-.2,4.55h2.29L51.1,11.36h0Z"
         id="path10"
         style="fill:#ffc22d;fill-opacity:1" />
      <path
         d="M60.25,17.54H58.66v-.42h0a1.68,1.68,0,0,1-.65.35,2.92,2.92,0,0,1-.92.13c-.85,0-1.59-.25-1.59-1v-4.1h1.7v3.92c0,.26.12.45.65.45s.74-.14.74-.53V12.51h1.69Z"
         id="path11"
         style="fill:#ffc22d;fill-opacity:1" />
      <path
         d="M61.61,13.17h-.85v-.66h.85v-.95l1.7-.34v1.29h1v.66h-1v3.26c0,.38.3.45.81.45a2.31,2.31,0,0,0,.43,0v.66c-.2,0-.63,0-1.1,0-1.35,0-1.84-.22-1.84-.67Z"
         id="path12"
         style="fill:#ffc22d;fill-opacity:1" />
      <path
         d="M65,13.8c0-.85.88-1.35,2.4-1.35,1.3,0,2.42.32,2.42,1.25v2.55c0,.85-.89,1.35-2.4,1.35-1.3,0-2.42-.32-2.42-1.25Zm1.7,2.51c0,.4.18.63.72.63s.7-.23.7-.63V13.74c0-.4-.18-.63-.7-.63s-.72.23-.72.63Z"
         id="path13"
         style="fill:#ffc22d;fill-opacity:1" />
      <path
         d="M70.91,12.51H72.5v.42h0a2.52,2.52,0,0,1,1.61-.48,2.23,2.23,0,0,1,1.48.48,2.13,2.13,0,0,1,1.49-.48c.92,0,1.66.25,1.66,1v4.1H77.08V13.62c0-.26-.13-.45-.65-.45s-.74.14-.74.53v3.84H74V13.62c0-.26-.12-.45-.65-.45s-.74.14-.74.53v3.84H70.91Z"
         id="path14"
         style="fill:#ffc22d;fill-opacity:1" />
      <path
         d="M79.91,13.54c0-.74.81-1.09,2.42-1.09s2.4.34,2.4,1.22v3.87H83.14V17c-.2.11-.31.21-.49.31a2.64,2.64,0,0,1-1.21.27c-1,0-1.66-.17-1.66-1.37,0-1,.15-1.25.62-1.52s.68-.31,2.63-.31v-.81c0-.29-.12-.48-.7-.48s-.72.11-.72.42V14h-1.7Zm2.58,1.52c-.79,0-1,.24-1,1s.13.84.67.84.88-.24.88-.58v-1.3Z"
         id="path15"
         style="fill:#ffc22d;fill-opacity:1" />
      <path
         d="M86.08,13.17h-.85v-.66h.85v-.95l1.7-.34v1.29h1v.66h-1v3.26c0,.38.3.45.81.45a2.31,2.31,0,0,0,.43,0v.66c-.2,0-.63,0-1.1,0-1.35,0-1.84-.22-1.84-.67Z"
         id="path16"
         style="fill:#ffc22d;fill-opacity:1" />
      <path
         d="m 89.54,12.51 h 1.7 v 5 h -1.7 z"
         id="path17"
         style="fill:#ffc22d;fill-opacity:1"
         sodipodi:nodetypes="ccccc" />
      <path
         d="M92.23,13.8c0-.85.88-1.35,2.4-1.35,1.3,0,2.42.32,2.42,1.25v2.55c0,.85-.89,1.35-2.4,1.35-1.3,0-2.42-.32-2.42-1.25Zm1.69,2.51c0,.4.19.63.73.63s.7-.23.7-.63V13.74c0-.4-.18-.63-.7-.63s-.73.23-.73.63Z"
         id="path18"
         style="fill:#ffc22d;fill-opacity:1" />
      <path
         d="M98,12.51h1.59v.42h0a1.61,1.61,0,0,1,.65-.35,2.88,2.88,0,0,1,.92-.13c.84,0,1.58.25,1.58,1v4.1h-1.69V13.62c0-.26-.13-.45-.65-.45s-.74.14-.74.53v3.84H98Z"
         id="path19"
         inkscape:label="path19"
         style="fill:#ffc22d;fill-opacity:1" />
    </g>
    <path
       d="M 65.15,1.44 H 66.9 L 66.025,3 Z"
       id="path7-8"
       sodipodi:nodetypes="cccc"
       style="stroke:#e7352c;stroke-opacity:1" />
    <circle
       style="fill:none;fill-opacity:1;stroke:#e7352c;stroke-width:0.5;stroke-dasharray:none;stroke-opacity:1"
       id="path20-9"
       cx="90.384003"
       cy="10.782"
       r="1" />
  </g>
  <metadata
     id="metadata1">
    <rdf:RDF>
      <cc:Work
         rdf:about="">
        <dc:title>EMAlogo</dc:title>
      </cc:Work>
    </rdf:RDF>
  </metadata>
</svg>
